<svg width="22" height="24" viewBox="0 0 22 24" fill="none" xmlns="http://www.w3.org/2000/svg">
<path d="M21.2438 12.0163C21.2432 11.8152 21.1869 11.6181 21.0811 11.4469C20.9754 11.2758 20.8243 11.1373 20.6446 11.0468L13.9773 7.71312V3.35542C13.9773 2.91478 13.8906 2.47846 13.7219 2.07136C13.5533 1.66426 13.3061 1.29436 12.9946 0.982781C12.683 0.671201 12.3131 0.424042 11.906 0.255417C11.4989 0.0867906 11.0626 0 10.6219 0C10.1813 0 9.74495 0.0867906 9.33785 0.255417C8.93075 0.424042 8.56085 0.671201 8.24927 0.982781C7.93769 1.29436 7.69054 1.66426 7.52191 2.07136C7.35328 2.47846 7.26649 2.91478 7.26649 3.35542V7.71312L0.599221 11.0468C0.419559 11.1373 0.268475 11.2758 0.162714 11.4469C0.0569534 11.6181 0.000647573 11.8152 3.78162e-05 12.0163V15.6441C-0.00144083 15.8216 0.0404636 15.9967 0.122106 16.1543C0.203749 16.3119 0.322658 16.4472 0.46849 16.5483C0.613492 16.6477 0.78038 16.7105 0.954908 16.7313C1.12944 16.7522 1.30642 16.7305 1.47076 16.6682L7.26649 14.4893V18.5529L5.28374 19.2065C5.06736 19.2796 4.87942 19.4189 4.74648 19.6046C4.61355 19.7903 4.54234 20.0131 4.54293 20.2415V22.9106C4.54353 23.0547 4.57273 23.1973 4.62883 23.3301C4.68493 23.4629 4.76682 23.5832 4.86976 23.6841C5.07268 23.8853 5.34656 23.9988 5.63236 24H15.6224C15.9113 24 16.1884 23.8852 16.3927 23.6809C16.597 23.4766 16.7118 23.1995 16.7118 22.9106V20.187C16.7124 19.9586 16.6412 19.7358 16.5082 19.5501C16.3753 19.3644 16.1874 19.2252 15.971 19.1521L13.9773 18.5529V14.5002L19.7731 16.6791C19.9374 16.7414 20.1144 16.7631 20.2889 16.7422C20.4635 16.7214 20.6303 16.6586 20.7753 16.5592C20.9212 16.4581 21.0401 16.3228 21.1217 16.1652C21.2034 16.0076 21.2453 15.8325 21.2438 15.655V12.0163ZM13.2801 11.9074C13.1143 11.8432 12.9352 11.8205 12.7586 11.8414C12.582 11.8623 12.4132 11.9261 12.2669 12.0272C12.1226 12.1273 12.0047 12.2609 11.9231 12.4164C11.8415 12.572 11.7988 12.7449 11.7985 12.9206V19.2828C11.7987 19.5125 11.8715 19.7363 12.0065 19.9222C12.1415 20.1081 12.3318 20.2465 12.5502 20.3178L14.5221 20.9714V21.8212H6.71089V20.9714L8.68274 20.3178C8.90116 20.2465 9.09147 20.1081 9.22648 19.9222C9.36149 19.7363 9.43428 19.5125 9.43445 19.2828V12.9206C9.43416 12.7449 9.39141 12.572 9.30984 12.4164C9.22827 12.2609 9.1103 12.1273 8.96599 12.0272C8.81972 11.9261 8.65091 11.8623 8.47431 11.8414C8.2977 11.8205 8.11866 11.8432 7.95283 11.9074L2.16799 14.0862V12.6918L8.82437 9.35815C9.00607 9.26913 9.15938 9.13127 9.26714 8.96002C9.37489 8.78876 9.43282 8.59089 9.43445 8.38856V3.38811C9.43445 3.07606 9.55841 2.77679 9.77906 2.55614C9.99971 2.33549 10.299 2.21153 10.611 2.21153C10.9231 2.21153 11.2223 2.33549 11.443 2.55614C11.6636 2.77679 11.7876 3.07606 11.7876 3.38811V8.38856C11.7892 8.59089 11.8472 8.78876 11.9549 8.96002C12.0627 9.13127 12.216 9.26913 12.3977 9.35815L19.0541 12.6918V14.0754L13.2801 11.9074Z" fill="#7E8089"/>
</svg>
