<svg width="17" height="17" viewBox="0 0 17 17" fill="none" xmlns="http://www.w3.org/2000/svg">
<path d="M4.75802 6.75779C5.35136 6.75779 5.93138 6.58184 6.42473 6.2522C6.91808 5.92255 7.3026 5.45402 7.52966 4.90584C7.75672 4.35766 7.81613 3.75446 7.70038 3.17252C7.58462 2.59057 7.2989 2.05602 6.87934 1.63647C6.45978 1.21691 5.92523 0.931186 5.34329 0.815431C4.76135 0.699675 4.15815 0.759085 3.60997 0.986148C3.06179 1.21321 2.59326 1.59773 2.26361 2.09108C1.93397 2.58442 1.75802 3.16444 1.75802 3.75779C1.75881 4.55319 2.07514 5.31579 2.63758 5.87823C3.20001 6.44067 3.96261 6.75699 4.75802 6.75779ZM4.75802 2.75779C4.9558 2.75779 5.14914 2.81644 5.31359 2.92632C5.47804 3.0362 5.60621 3.19238 5.6819 3.3751C5.75759 3.55783 5.77739 3.7589 5.73881 3.95288C5.70022 4.14686 5.60498 4.32504 5.46513 4.46489C5.32527 4.60475 5.14709 4.69999 4.95311 4.73857C4.75913 4.77716 4.55806 4.75735 4.37534 4.68167C4.19261 4.60598 4.03643 4.47781 3.92655 4.31336C3.81667 4.14891 3.75802 3.95557 3.75802 3.75779C3.75802 3.49257 3.86338 3.23822 4.05091 3.05068C4.23845 2.86314 4.4928 2.75779 4.75802 2.75779ZM13.242 9.24179C12.6487 9.24179 12.0687 9.41773 11.5753 9.74738C11.082 10.077 10.6974 10.5456 10.4704 11.0937C10.2433 11.6419 10.1839 12.2451 10.2997 12.8271C10.4154 13.409 10.7011 13.9435 11.1207 14.3631C11.5403 14.7827 12.0748 15.0684 12.6567 15.1841C13.2387 15.2999 13.8419 15.2405 14.3901 15.0134C14.9382 14.7864 15.4068 14.4018 15.7364 13.9085C16.0661 13.4151 16.242 12.8351 16.242 12.2418C16.2412 11.4464 15.9249 10.6838 15.3625 10.1213C14.8 9.55891 14.0374 9.24258 13.242 9.24179ZM13.242 13.2418C13.0442 13.2418 12.8509 13.1831 12.6865 13.0733C12.522 12.9634 12.3938 12.8072 12.3181 12.6245C12.2425 12.4417 12.2226 12.2407 12.2612 12.0467C12.2998 11.8527 12.3951 11.6745 12.5349 11.5347C12.6748 11.3948 12.8529 11.2996 13.0469 11.261C13.2409 11.2224 13.442 11.2422 13.6247 11.3179C13.8074 11.3936 13.9636 11.5218 14.0735 11.6862C14.1834 11.8507 14.242 12.044 14.242 12.2418C14.242 12.507 14.1367 12.7614 13.9491 12.9489C13.7616 13.1364 13.5072 13.2418 13.242 13.2418ZM16.707 0.292787C16.5195 0.105316 16.2652 0 16 0C15.7349 0 15.4805 0.105316 15.293 0.292787L1.29302 14.2928C1.19751 14.385 1.12133 14.4954 1.06892 14.6174C1.01651 14.7394 0.988924 14.8706 0.98777 15.0034C0.986616 15.1362 1.01192 15.2678 1.0622 15.3907C1.11248 15.5136 1.18673 15.6253 1.28062 15.7192C1.37452 15.8131 1.48617 15.8873 1.60907 15.9376C1.73196 15.9879 1.86364 16.0132 1.99642 16.012C2.1292 16.0109 2.26042 15.9833 2.38242 15.9309C2.50443 15.8785 2.61477 15.8023 2.70702 15.7068L16.707 1.70679C16.8945 1.51926 16.9998 1.26495 16.9998 0.999786C16.9998 0.734622 16.8945 0.480314 16.707 0.292787Z" fill="#FF5100"/>
</svg>
