<svg width="17" height="17" viewBox="0 0 17 17" fill="none" xmlns="http://www.w3.org/2000/svg">
<path d="M4.758 6.758C5.35135 6.758 5.93137 6.58205 6.42472 6.25241C6.91806 5.92276 7.30258 5.45423 7.52964 4.90605C7.75671 4.35787 7.81612 3.75467 7.70036 3.17273C7.5846 2.59079 7.29888 2.05624 6.87932 1.63668C6.45977 1.21712 5.92522 0.9314 5.34328 0.815644C4.76133 0.699889 4.15813 0.759299 3.60995 0.986362C3.06178 1.21342 2.59324 1.59794 2.2636 2.09129C1.93395 2.58464 1.758 3.16466 1.758 3.758C1.7588 4.55341 2.07512 5.31601 2.63756 5.87844C3.2 6.44088 3.9626 6.75721 4.758 6.758ZM4.758 2.758C4.95579 2.758 5.14913 2.81665 5.31357 2.92653C5.47802 3.03641 5.6062 3.19259 5.68188 3.37532C5.75757 3.55804 5.77738 3.75911 5.73879 3.95309C5.70021 4.14707 5.60496 4.32525 5.46511 4.46511C5.32526 4.60496 5.14708 4.7002 4.95309 4.73879C4.75911 4.77737 4.55805 4.75757 4.37532 4.68188C4.1926 4.60619 4.03642 4.47802 3.92654 4.31357C3.81665 4.14912 3.758 3.95578 3.758 3.758C3.758 3.49278 3.86336 3.23843 4.0509 3.05089C4.23843 2.86336 4.49279 2.758 4.758 2.758ZM13.242 9.242C12.6487 9.242 12.0686 9.41795 11.5753 9.74759C11.0819 10.0772 10.6974 10.5458 10.4704 11.0939C10.2433 11.6421 10.1839 12.2453 10.2996 12.8273C10.4154 13.4092 10.7011 13.9438 11.1207 14.3633C11.5402 14.7829 12.0748 15.0686 12.6567 15.1844C13.2387 15.3001 13.8419 15.2407 14.3901 15.0136C14.9382 14.7866 15.4068 14.4021 15.7364 13.9087C16.0661 13.4154 16.242 12.8353 16.242 12.242C16.2412 11.4466 15.9249 10.684 15.3624 10.1216C14.8 9.55912 14.0374 9.24279 13.242 9.242ZM13.242 13.242C13.0442 13.242 12.8509 13.1834 12.6864 13.0735C12.522 12.9636 12.3938 12.8074 12.3181 12.6247C12.2424 12.442 12.2226 12.2409 12.2612 12.0469C12.2998 11.8529 12.395 11.6747 12.5349 11.5349C12.6748 11.395 12.8529 11.2998 13.0469 11.2612C13.2409 11.2226 13.442 11.2424 13.6247 11.3181C13.8074 11.3938 13.9636 11.522 14.0735 11.6864C14.1834 11.8509 14.242 12.0442 14.242 12.242C14.242 12.5072 14.1366 12.7616 13.9491 12.9491C13.7616 13.1366 13.5072 13.242 13.242 13.242ZM16.707 0.293C16.5195 0.105529 16.2652 0.000213623 16 0.000213623C15.7348 0.000213623 15.4805 0.105529 15.293 0.293L1.29301 14.293C1.19749 14.3852 1.12131 14.4956 1.0689 14.6176C1.01649 14.7396 0.988908 14.8708 0.987754 15.0036C0.986601 15.1364 1.0119 15.2681 1.06218 15.391C1.11246 15.5138 1.18672 15.6255 1.28061 15.7194C1.3745 15.8133 1.48615 15.8875 1.60905 15.9378C1.73195 15.9881 1.86363 16.0134 1.99641 16.0123C2.12919 16.0111 2.26041 15.9835 2.38241 15.9311C2.50441 15.8787 2.61476 15.8025 2.707 15.707L16.707 1.707C16.8945 1.51947 16.9998 1.26516 16.9998 1C16.9998 0.734836 16.8945 0.480528 16.707 0.293Z" fill="#7E8089"/>
</svg>
